<?xml version="1.0" encoding="UTF-8" standalone="no"?>
<!-- Created with Inkscape (http://www.inkscape.org/) -->

<svg
   version="1.1"
   id="svg1"
   width="1581.9999"
   height="608.00452"
   viewBox="0 0 1581.9999 608.00451"
   xmlns:xlink="http://www.w3.org/1999/xlink"
   xmlns="http://www.w3.org/2000/svg"
   xmlns:svg="http://www.w3.org/2000/svg">
  <defs
     id="defs1">
    <linearGradient
       id="linearGradient15">
      <stop
         style="stop-color:#466c8f;stop-opacity:1;"
         offset="0"
         id="stop15" />
      <stop
         style="stop-color:#1e4c76;stop-opacity:1"
         offset="1"
         id="stop16" />
    </linearGradient>
    <linearGradient
       xlink:href="#linearGradient15"
       id="linearGradient16"
       x1="1515.9446"
       y1="704.94543"
       x2="3.1192276"
       y2="1260.168"
       gradientUnits="userSpaceOnUse" />
  </defs>
  <g
     id="g1"
     transform="translate(28.693536,-681.70219)">
    <path
       style="fill:#dce8f6"
       d="m -21.360203,1288.7569 c -2.509928,-1.1236 -6.029379,-4.7965 -6.95911,-7.2625 -0.495057,-1.3131 -0.707556,-90.1668 -0.707556,-295.85477 0,-248.55009 0.142244,-294.3095 0.920505,-296.12325 1.121807,-2.61439 4.744153,-6.14471 7.289561,-7.10437 1.31956,-0.49749 233.836093,-0.70755 783.188033,-0.70755 663.03037,0 781.63607,0.13935 783.45657,0.9205 2.6144,1.12181 6.1447,4.74415 7.1043,7.28956 0.9978,2.6464 0.9978,588.93348 0,591.57988 -0.9596,2.5454 -4.4899,6.1677 -7.1043,7.2895 -3.1691,1.3598 -1564.150213,1.3329 -1567.188003,-0.027 z"
       id="path14" />
    <path
       style="fill:url(#linearGradient16);fill-opacity:1"
       d="m -21.75321,1288.1544 c -1.617179,-0.8538 -3.840326,-2.8301 -4.940326,-4.3919 l -2,-2.8396 V 985.70445 690.48598 l 2,-2.83958 c 1.1,-1.56177 3.323147,-3.53812 4.940326,-4.39189 l 2.940326,-1.55232 781.774984,0.1678 781.775,0.1678 2.7025,1.78845 c 1.4864,0.98365 3.4145,2.93365 4.2846,4.33334 l 1.5822,2.54488 v 295.04867 295.04867 l -1.7885,2.7026 c -0.9837,1.4863 -2.9337,3.4144 -4.3333,4.2846 l -2.5449,1.5821 -781.72628,0.1678 -781.726304,0.1678 z M 442.1958,1117.4597 c -11.04423,-5.0822 -16.68209,-8.2265 -27.44318,-15.3053 -29.46543,-19.3827 -48.34488,-41.8473 -58.82845,-69.9996 -2.59699,-6.9739 -2.91652,-9.1874 -0.83492,-5.7837 7.22881,11.82 11.99273,18.0993 19.46155,25.6524 9.60712,9.7154 14.85521,13.3638 29.36756,20.4158 13.39507,6.5091 21.40455,9.4188 33.71985,12.2501 16.34699,3.7581 24.46502,4.5459 42.88747,4.1617 19.48895,-0.4064 32.51165,-2.3539 49.78075,-7.4443 6.02896,-1.7772 13.53007,-4.6643 10.56363,-4.0659 -12.87678,2.5977 -18.51404,3.1994 -32.91001,3.5127 -12.17796,0.2651 -16.90202,0.1059 -22.88109,-0.7709 -15.26937,-2.2393 -28.95364,-6.618 -39.10585,-12.5134 -5.04849,-2.9316 -13.80668,-9.2804 -13.38461,-9.7025 0.1429,-0.1429 2.64303,0.4931 5.55585,1.4132 23.20873,7.3317 43.86393,8.8952 58.36041,4.4177 5.52934,-1.7079 7.94284,-3.5652 7.67183,-5.9039 -0.35178,-3.0357 -5.15224,-4.1038 -21.53682,-4.7918 -8.05379,-0.3381 -15.98207,-1.0321 -18.66667,-1.6339 -2.56666,-0.5753 -6.02604,-1.3148 -7.68751,-1.6433 -3.67671,-0.7269 -16.87582,-5.7743 -22.42493,-8.5755 -6.07962,-3.069 -17.20927,-10.7269 -23.2629,-16.0065 -17.16442,-14.9695 -29.19571,-36.07973 -31.72012,-55.65652 -1.49531,-11.59614 1.63903,-23.45425 8.72581,-33.01218 5.93972,-8.0109 15.91176,-15.94428 25.95506,-20.64889 6.10576,-2.86013 5.02026,-3.45695 -2.72512,-1.49831 -7.03067,1.77791 -12.61889,4.41455 -20.56002,9.70065 -14.55216,9.68682 -22.65295,20.78854 -31.62726,43.34356 -3.49806,8.79164 -4.52537,10.4143 -5.79165,9.14802 -1.20374,-1.20374 -1.49403,-8.44219 -0.55159,-13.75414 2.36386,-13.32367 9.73906,-27.4969 19.57861,-37.62509 10.21221,-10.51177 24.66141,-20.09332 43.09081,-28.57436 8.71382,-4.01002 8.09675,-4.45176 -3.14221,-2.2494 -8.26124,1.61885 -16.36525,4.48395 -26.52364,9.37721 -10.73566,5.17133 -17.123,9.57362 -23.98917,16.53382 -8.68907,8.80808 -14.7122,17.75304 -25.01103,37.14394 -1.55794,2.93334 -3.26357,5.78334 -3.79029,6.33334 -0.84885,0.88637 -1.06666,0.85295 -1.91692,-0.29409 -2.35715,-3.17993 0.31587,-13.27333 6.08724,-22.98554 8.07575,-13.59008 23.32581,-31.44081 33.94261,-39.73101 20.02722,-15.63839 49.34917,-27.17138 80.61218,-31.7066 8.31571,-1.20633 5.72259,-1.89454 -6.93462,-1.84041 -23.10641,0.0988 -47.43243,5.4972 -72.95434,16.18993 -31.58018,13.23092 -56.75043,36.84221 -70.39436,66.03438 -4.7366,10.13429 -6.7168,16.87582 -8.98113,30.57597 -0.23416,1.41678 -0.41038,8.16678 -0.39159,15 0.0608,22.13092 4.70915,42.66412 13.47084,59.50512 3.11859,5.9944 7.27165,11.0633 8.46173,10.3278 1.21061,-0.7482 0.98449,-1.94 -1.62983,-8.5899 -3.78675,-9.6322 -5.10105,-18.4033 -5.06762,-33.819 0.0254,-11.726 1.15642,-27.44376 1.39869,-19.438 0.14931,4.9341 2.70765,16.0302 5.86501,25.438 5.58955,16.6549 18.76433,43.0138 20.5878,41.1904 0.49121,-0.4912 -0.4182,-3.4943 -5.60944,-18.5237 -3.95327,-11.4453 -6.08909,-21.3269 -6.08909,-28.1719 0,-4.7307 0.93235,-9.1615 1.92781,-9.1615 0.25522,0 1.30572,2.625 2.33445,5.8334 8.19437,25.5561 23.64373,47.6922 45.40441,65.0563 18.44501,14.7183 42.58121,27.0161 66.26046,33.7607 4.99007,1.4214 9.5225,2.6065 10.07205,2.6336 0.54956,0.027 -2.49987,-1.5608 -6.77649,-3.5287 z m 582.0915,1.2731 c 7.4138,-1.5151 12.9337,-3.4816 20.2889,-7.228 20.3058,-10.3428 32.7215,-28.8137 35.7036,-53.1162 0.4387,-3.575 0.6932,-30.8064 0.6932,-74.16666 v -68.51749 h -20.9656 -20.9656 l -0.2011,39.16666 -0.201,39.16667 -1.7779,4.86597 c -3.1776,8.69715 -8.5352,14.18905 -17.1519,17.58175 -3.1189,1.2281 -5.0599,1.4714 -11.7369,1.4714 -9.41567,0 -13.60637,-1.2709 -18.55557,-5.6273 -3.5554,-3.1296 -5.2618,-5.7231 -7.2757,-11.0578 -1.4446,-3.82682 -1.4791,-4.67074 -1.8206,-44.56735 l -0.3481,-40.66667 -20.8658,-0.17621 -20.8658,-0.17621 0.21895,41.84288 0.21895,41.84287 1.78258,6.52929 c 3.80215,13.9268 9.77432,24.4413 19.20042,33.804 11.4399,11.3631 26.1283,17.3334 42.64407,17.3334 12.8375,0 23.264,-3.5679 32.1666,-11.0073 l 4.5,-3.7604 v 4.4959 c 0,16.8071 -6.8511,27.0445 -21,31.3796 -5.4336,1.6647 -24.54657,1.6424 -33.24927,-0.039 -6.8101,-1.3157 -15.6208,-3.9822 -19.2507,-5.8261 l -2.5,-1.27 v 21.6544 21.6544 l 3.4325,1.0193 c 6.4826,1.9251 15.3367,3.4481 26.9009,4.6272 5.624,0.5734 26.13627,-0.2431 30.98087,-1.2331 z m 165.6857,-61.7125 c 9.1344,-0.6642 26.0407,-3.1921 32.6667,-4.8845 l 3.3333,-0.8513 0.1769,-19.5315 0.1768,-19.5316 -1.827,0.4586 c -6.6993,1.6814 -31.4237,4.3578 -40.2575,4.3578 -14.2526,0 -25.0122,-2.407 -31.2595,-6.993 -3.4142,-2.5062 -6.7458,-6.684 -7.6619,-9.6079 -0.4319,-1.37825 -0.3287,-1.53323 0.742,-1.11465 10.668,4.17045 19.4664,5.93565 29.5769,5.93385 14.1819,0 27.1863,-2.9771 38.3333,-8.76798 7.6074,-3.95201 16.5061,-12.39668 19.2389,-18.25723 5.7903,-12.41745 4.7946,-28.56496 -2.4324,-39.447 -14.8085,-22.29757 -54.324,-30.96157 -86.3011,-18.92203 -22.6532,8.52905 -38.2276,27.52973 -42.5096,51.86145 -1.2834,7.29246 -1.273,20.85957 0.022,28.39379 6.0002,34.9178 33.8469,56.3571 74.6493,57.4726 2.2,0.06 8.2,-0.1961 13.3333,-0.5694 z m -27,-84.43098 c -5.3773,-0.86107 -15.4122,-3.13983 -15.671,-3.55864 -0.1676,-0.27115 0.5377,-1.65548 1.5673,-3.07628 5.5508,-7.66013 16.0952,-11.42464 30.0406,-10.72499 8.2684,0.41482 11.266,1.19308 13.6052,3.53227 5.2142,5.21418 1.4229,11.57303 -8.0749,13.54325 -3.3065,0.68591 -17.7636,0.87744 -21.4672,0.28439 z m -306.92349,83.41648 c 29.98388,-5.2287 50.45804,-25.6601 56.08535,-55.968 0.95743,-5.1566 1.11808,-11.48223 1.14279,-45.00002 l 0.0288,-39 -20.77783,-0.17608 -20.77784,-0.17609 -0.27568,38.84275 c -0.24271,34.19634 -0.41284,39.32124 -1.42226,42.84275 -3.70512,12.92589 -12.20044,19.88199 -25.3841,20.78489 -12.73329,0.8721 -22.71362,-3.872 -27.65688,-13.1465 -4.37207,-8.20281 -4.26902,-7.06314 -4.53358,-50.13839 l -0.24055,-39.16666 h -20.96564 -20.96563 v 36.35961 c 0,21.30481 0.29419,38.99786 0.7105,42.73139 3.65841,32.80895 24.41301,55.40415 56.24735,61.23555 6.72089,1.2311 21.65598,1.218 28.78524,-0.025 z m -218.40975,-48.2901 v -47.98874 l 17.16667,-0.17792 17.16666,-0.17793 v -19.33333 -19.33333 l -17.16666,-0.17792 -17.16667,-0.17792 v -4.84868 c 0,-15.2773 8.51086,-26.05665 23.02135,-29.15751 4.49818,-0.96125 16.53899,-1.22936 20.81198,-0.46343 l 2.83334,0.50788 v -20.311 -20.311 l -2.5,-0.53021 c -4.22983,-0.89708 -20.0787,-0.4677 -26.78567,0.72568 -29.4678,5.24323 -49.76943,23.07008 -57.25269,50.27357 l -1.77995,6.47054 -0.19559,76.5 -0.1956,76.49995 h 21.02142 21.02141 z m 105.33333,-50.01125 v -98 h -21 -21 v 98 97.99995 h 21 21 z m -448.5896,-15 c 6.77151,-14.05301 15.27854,-26.19155 26.58838,-37.93851 21.7145,-22.55375 47.64372,-37.34182 77.00124,-43.91569 14.42088,-3.22919 16.82989,-3.46596 35.33333,-3.47264 20.39549,-0.007 28.43997,0.98825 43.81023,5.42208 4.50437,1.29937 11.86509,3.38221 16.35715,4.62854 12.05876,3.3457 14.91648,4.61324 28.83261,12.78865 1.66443,0.97782 1.66478,0.97746 0.25888,-0.26665 -20.02464,-17.7201 -47.01093,-29.23702 -75.64323,-32.2822 -16.04553,-1.70652 -39.65064,0.0375 -54.89595,4.05586 -47.42727,12.50089 -84.92653,47.57415 -100.79941,94.27821 -2.17607,6.40284 -2.93946,9.80116 -1.43071,6.36901 0.40296,-0.91666 2.46733,-5.26666 4.58748,-9.66666 z"
       id="path13" />
  </g>
</svg>
