<?xml version="1.0" encoding="UTF-8" standalone="no"?>
<!-- Wiz icon: iso + sparkles sobre transparente.
     Para UI sobre fondos oscuros (avatar del chat, botones).
     Para versión con fondo claro (presentaciones), usar wiz.svg. -->
<svg version="1.1" viewBox="0 0 252 252" xmlns="http://www.w3.org/2000/svg">
  <!-- Iso de Fluye en blanco -->
  <path fill="#ffffff" fill-opacity="0.95" d="M144 217c-5-2.8-12.3-7.6-16.3-10.6-9-6.9-21.6-20.3-26-27.6-6.4-10.7-12.9-28.1-7.3-19.7 14.3 21.4 34.2 34.4 62.4 40.7 10.7 2.4 33.4 2.1 46.2-.5 10.2-2 19.2-4.9 11-3.5-2.2.4-9.6.7-16.5.6-14.4-.1-25.4-2.1-34.6-6.3-6.6-3-15.8-8.9-15-9.7.2-.2 4 .5 8.3 1.7 9.7 2.6 30.3 3.8 35.6 2 2-.6 4.1-1.8 4.7-2.6 1.8-2.2-1.3-3.2-14-4.4-24.7-2.4-39.7-8.9-54.5-23.6-8.8-8.8-14.3-17.9-16.9-28.1-4.4-17.1.4-29.6 15.6-40.4 5.7-4 6.6-5 4.3-4.5-6.4 1.5-12.3 5.2-19.2 12.1-5.9 6-8.2 9.3-13 19-3.2 6.5-6.3 11.7-6.8 11.6-.6-.1-.9-3.1-.9-7.1.3-16.3 12.3-31.3 35.7-44.8 5-2.9 8.4-5.2 7.5-5.2-2.9 0-15.2 4.1-21.4 7.2-9 4.5-21.5 17.7-29.3 31-3.5 5.9-6.7 10.5-7.3 10.2-2-1.2-.8-7.7 2.7-14.7C88 82.3 103 68.2 123 59c10-4.7 15.4-6.5 28.1-9.6l10-2.4-9.5.5C120 49.4 93.5 60.3 74 79.8c-16.3 16.3-24.5 35.3-24.5 56.9 0 16.2 3.8 31.4 10.7 43.3 3.2 5.5 4 4-1.7-3.1-2-6.2-3.3-33.4-1.7-35 .6-.6 1.2 1 1.6 4.7.8 6.9 6.4 22.3 11.9 32.7 2.2 4.3 4.2 7.6 4.4 7.5.1-.2-1.3-5.1-3.2-10.9-3.7-11.5-5.1-20-4-24.4.9-3.6 1.8-2.5 5.6 7.4 6.2 16.1 21 34.3 36.7 44.9 7.6 5.2 20.4 11.6 30.2 15.3 10.7 4 10.8 3.6.6-2.1z"/>
  <!-- Sparkles blancos (mismas posiciones que wiz.svg, sin stroke porque fondo es oscuro) -->
  <path fill="#ffffff" d="m 160,22 6,17 17,6 -17,6 -6,17 -6,-17 -17,-6 17,-6 z"/>
  <path fill="#ffffff" d="m 195,67 10,29 29,10 -29,10 -10,29 -10,-29 -29,-10 29,-10 z"/>
</svg>
